<?xml version="1.0" encoding="UTF-8"?>
<!DOCTYPE svg PUBLIC "-//W3C//DTD SVG 1.1//EN" "http://www.w3.org/Graphics/SVG/1.1/DTD/svg11.dtd">
<svg xmlns="http://www.w3.org/2000/svg" version="1.1" width="333px" height="459px" style="shape-rendering:geometricPrecision; text-rendering:geometricPrecision; image-rendering:optimizeQuality; fill-rule:evenodd; clip-rule:evenodd" xmlns:xlink="http://www.w3.org/1999/xlink">
<g><path style="opacity:1" fill="#f6f6f6" d="M -0.5,-0.5 C 52.8333,-0.5 106.167,-0.5 159.5,-0.5C 159.5,-0.166667 159.5,0.166667 159.5,0.5C 144.882,9.14656 129.882,17.3132 114.5,25C 109.213,28.4485 105.213,32.9485 102.5,38.5C 99.6281,42.2603 97.7948,46.5936 97,51.5C 96.5,124.833 96.3333,198.166 96.5,271.5C 96.5774,272.75 97.244,273.583 98.5,274C 119.852,274.206 140.852,271.539 161.5,266C 162.381,265.292 163.047,264.458 163.5,263.5C 164.473,261.052 164.806,258.385 164.5,255.5C 166.327,229.185 167.16,202.519 167,175.5C 167.668,203.172 168.835,230.505 170.5,257.5C 169.68,261.24 171.013,263.573 174.5,264.5C 178.833,263.167 183.167,263.167 187.5,264.5C 188.5,264.333 189.5,264.167 190.5,264C 190.167,263.667 189.833,263.333 189.5,263C 192.482,262.502 195.482,262.335 198.5,262.5C 163.128,275.817 126.461,281.65 88.5,280C 80.9258,279.482 74.7591,276.315 70,270.5C 66.2697,263.405 66.9363,256.739 72,250.5C 78.0492,244.895 84.5492,239.895 91.5,235.5C 89.9255,234.369 88.2588,234.202 86.5,235C 68.6758,240.823 53.1758,250.323 40,263.5C 26.7193,278.339 29.2193,289.506 47.5,297C 52.0971,298.586 56.7637,299.919 61.5,301C 98.3912,304.055 134.391,299.722 169.5,288C 227.551,268.991 279.218,239.491 324.5,199.5C 326.717,198.631 329.05,198.298 331.5,198.5C 331.5,197.167 331.5,195.833 331.5,194.5C 327.33,194.333 323.33,195 319.5,196.5C 319.803,193.412 318.47,191.746 315.5,191.5C 315.667,172.497 315.5,153.497 315,134.5C 314.329,133.748 313.496,133.414 312.5,133.5C 291.337,132.337 270.004,132.171 248.5,133C 248,133.5 247.5,134 247,134.5C 246.667,150.833 246.333,167.167 246,183.5C 245.111,180.721 243.944,178.055 242.5,175.5C 242.167,176 241.833,176.5 241.5,177C 243.214,180.353 244.047,183.853 244,187.5C 242.205,184.901 240.705,182.234 239.5,179.5C 239.5,151.5 239.5,123.5 239.5,95.5C 217.5,95.5 195.5,95.5 173.5,95.5C 171.869,100.1 170.869,105.1 170.5,110.5C 169.749,109.624 169.249,108.624 169,107.5C 166.969,110.54 166.469,113.707 167.5,117C 166.973,122.26 166.14,127.427 165,132.5C 164.168,121.818 164.334,111.151 165.5,100.5C 166.95,99.1502 167.617,97.4835 167.5,95.5C 166.5,95.5 165.5,95.5 164.5,95.5C 164.7,63.4914 164.367,31.4914 163.5,-0.5C 219.833,-0.5 276.167,-0.5 332.5,-0.5C 332.5,121.167 332.5,242.833 332.5,364.5C 331.833,364.167 331.167,363.833 330.5,363.5C 327.15,363.335 323.817,363.502 320.5,364C 315,372.167 309.5,380.333 304,388.5C 298.98,381.783 294.48,374.783 290.5,367.5C 289.42,365.955 289.42,364.455 290.5,363C 290.387,361.72 289.72,360.887 288.5,360.5C 283.189,361.786 277.856,361.786 272.5,360.5C 276.223,358.845 276.223,357.511 272.5,356.5C 271.354,357.145 270.354,357.978 269.5,359C 270.973,359.71 271.64,360.876 271.5,362.5C 266.637,362.181 261.97,362.514 257.5,363.5C 257.906,374.564 257.406,385.564 256,396.5C 252.042,401.353 247.208,402.52 241.5,400C 239.106,398.048 237.606,395.548 237,392.5C 236.5,382.839 236.334,373.172 236.5,363.5C 232.5,363.5 228.5,363.5 224.5,363.5C 223.71,364.609 223.21,365.942 223,367.5C 222.667,378.167 222.333,388.833 222,399.5C 221.899,402.7 221.232,405.7 220,408.5C 218.878,394.66 218.044,380.827 217.5,367C 218.985,365.244 218.652,364.077 216.5,363.5C 212.366,362.515 208.032,362.182 203.5,362.5C 202.181,379.527 202.181,396.693 203.5,414C 203.167,414.5 202.833,415 202.5,415.5C 201.472,413.639 199.972,412.305 198,411.5C 197.318,409.062 197.818,406.895 199.5,405C 198.394,403.142 197.394,401.308 196.5,399.5C 196.5,387.167 196.5,374.833 196.5,362.5C 192.958,362.187 189.625,362.521 186.5,363.5C 180.689,371.767 174.856,380.1 169,388.5C 163.278,380.284 157.778,371.951 152.5,363.5C 149.375,362.521 146.042,362.187 142.5,362.5C 127.99,362.171 113.657,362.504 99.5,363.5C 99.5,379.5 99.5,395.5 99.5,411.5C 99.762,412.978 99.4287,414.311 98.5,415.5C 97.2801,415.113 96.6135,414.28 96.5,413C 97.0092,410.287 97.3425,407.62 97.5,405C 96.6769,392.575 96.1769,380.075 96,367.5C 95.6667,370.5 95.3333,373.5 95,376.5C 94.6075,373.367 93.7741,370.367 92.5,367.5C 91.9348,369.544 90.9348,371.21 89.5,372.5C 86.4864,366.99 81.8197,363.99 75.5,363.5C 67.0161,362.507 58.3494,362.174 49.5,362.5C 46.7952,362.38 46.1285,363.38 47.5,365.5C 45.1231,367.252 44.9564,369.252 47,371.5C 47.3333,370.167 47.6667,368.833 48,367.5C 48.6667,372.833 48.6667,378.167 48,383.5C 46.5457,379.252 45.2123,374.919 44,370.5C 41.4598,368.295 39.2932,365.795 37.5,363C 24.8005,362.225 12.1338,362.392 -0.5,363.5C -0.5,242.167 -0.5,120.833 -0.5,-0.5 Z"/></g>
<g><path style="opacity:1" fill="#107949" d="M 159.5,0.5 C 159.833,0.5 160.167,0.5 160.5,0.5C 160.293,44.5065 160.626,88.5065 161.5,132.5C 160.588,144.741 156.255,155.574 148.5,165C 152.833,165.333 157.167,165.667 161.5,166C 162,166.5 162.5,167 163,167.5C 163.5,199.498 163.667,231.498 163.5,263.5C 163.047,264.458 162.381,265.292 161.5,266C 140.852,271.539 119.852,274.206 98.5,274C 97.244,273.583 96.5774,272.75 96.5,271.5C 97.3329,200.668 97.8329,129.668 98,58.5C 99.4953,51.4883 100.995,44.8216 102.5,38.5C 105.213,32.9485 109.213,28.4485 114.5,25C 129.882,17.3132 144.882,9.14656 159.5,0.5 Z"/></g>
<g><path style="opacity:1" fill="#3d8362" d="M 160.5,0.5 C 161.833,22.1564 162.5,44.1564 162.5,66.5C 162.5,88.6692 162.167,110.669 161.5,132.5C 160.626,88.5065 160.293,44.5065 160.5,0.5 Z"/></g>
<g><path style="opacity:1" fill="#81c9a7" d="M 173.5,96.5 C 173.5,96.1667 173.5,95.8333 173.5,95.5C 195.5,95.5 217.5,95.5 239.5,95.5C 239.5,123.5 239.5,151.5 239.5,179.5C 239.672,180.492 239.338,181.158 238.5,181.5C 238.5,153.167 238.5,124.833 238.5,96.5C 216.833,96.5 195.167,96.5 173.5,96.5 Z"/></g>
<g><path style="opacity:1" fill="#107949" d="M 237.5,185.5 C 234.573,194.02 230.573,202.02 225.5,209.5C 224.957,209.56 224.624,209.893 224.5,210.5C 228.445,211.491 232.445,211.824 236.5,211.5C 237.458,211.953 238.292,212.619 239,213.5C 239.667,221.833 239.667,230.167 239,238.5C 221.607,246.243 203.774,252.91 185.5,258.5C 183.738,258.357 182.071,258.691 180.5,259.5C 178.932,257.8 177.099,256.466 175,255.5C 174.333,226.167 174.333,196.833 175,167.5C 175.603,170.906 176.769,171.239 178.5,168.5C 178.291,167.914 177.957,167.414 177.5,167C 180.695,166.819 183.695,166.319 186.5,165.5C 182.484,157.469 178.484,149.469 174.5,141.5C 174.176,127.255 174.51,113.088 175.5,99C 196.164,98.5 216.831,98.3334 237.5,98.5C 237.5,127.5 237.5,156.5 237.5,185.5 Z"/></g>
<g><path style="opacity:1" fill="#286d4c" d="M 102.5,38.5 C 100.995,44.8216 99.4953,51.4883 98,58.5C 97.8329,129.668 97.3329,200.668 96.5,271.5C 96.3333,198.166 96.5,124.833 97,51.5C 97.7948,46.5936 99.6281,42.2603 102.5,38.5 Z"/></g>
<g><path style="opacity:1" fill="#1a734a" d="M 173.5,96.5 C 195.167,96.5 216.833,96.5 238.5,96.5C 238.5,124.833 238.5,153.167 238.5,181.5C 238.768,183.099 238.434,184.432 237.5,185.5C 237.5,156.5 237.5,127.5 237.5,98.5C 216.831,98.3334 196.164,98.5 175.5,99C 174.51,113.088 174.176,127.255 174.5,141.5C 173.657,139.513 172.99,137.346 172.5,135C 173.472,122.204 173.805,109.371 173.5,96.5 Z"/></g>
<g><path style="opacity:1" fill="#22714f" d="M 250.5,134.5 C 271.503,134.333 292.503,134.5 313.5,135C 314.831,155.264 314.831,175.431 313.5,195.5C 313.826,175.591 313.493,155.757 312.5,136C 291.836,135.5 271.169,135.333 250.5,135.5C 249.56,151.805 249.227,168.138 249.5,184.5C 248.338,168.339 248.172,152.005 249,135.5C 249.383,134.944 249.883,134.611 250.5,134.5 Z"/></g>
<g><path style="opacity:1" fill="#107849" d="M 313.5,195.5 C 313.5,196.167 313.5,196.833 313.5,197.5C 313.047,198.458 312.381,199.292 311.5,200C 291.813,211.033 272.147,222.033 252.5,233C 251.207,233.49 249.873,233.657 248.5,233.5C 248.334,226.825 248.5,220.158 249,213.5C 249.5,213 250,212.5 250.5,212C 254.833,211.667 259.167,211.333 263.5,211C 257.881,202.592 253.215,193.759 249.5,184.5C 249.227,168.138 249.56,151.805 250.5,135.5C 271.169,135.333 291.836,135.5 312.5,136C 313.493,155.757 313.826,175.591 313.5,195.5 Z"/></g>
<g><path style="opacity:1" fill="#c0ebd8" d="M 250.5,134.5 C 270.993,133.503 291.66,133.169 312.5,133.5C 313.496,133.414 314.329,133.748 315,134.5C 315.5,153.497 315.667,172.497 315.5,191.5C 315.946,194.01 315.28,196.01 313.5,197.5C 313.5,196.833 313.5,196.167 313.5,195.5C 314.831,175.431 314.831,155.264 313.5,135C 292.503,134.5 271.503,134.333 250.5,134.5 Z"/></g>
<g><path style="opacity:1" fill="#eff5f2" d="M 159.5,0.5 C 159.5,0.166667 159.5,-0.166667 159.5,-0.5C 160.833,-0.5 162.167,-0.5 163.5,-0.5C 164.367,31.4914 164.7,63.4914 164.5,95.5C 165.5,95.5 166.5,95.5 167.5,95.5C 167.617,97.4835 166.95,99.1502 165.5,100.5C 164.334,111.151 164.168,121.818 165,132.5C 166.14,127.427 166.973,122.26 167.5,117C 166.469,113.707 166.969,110.54 169,107.5C 169.249,108.624 169.749,109.624 170.5,110.5C 170.869,105.1 171.869,100.1 173.5,95.5C 173.5,95.8333 173.5,96.1667 173.5,96.5C 173.805,109.371 173.472,122.204 172.5,135C 172.99,137.346 173.657,139.513 174.5,141.5C 178.484,149.469 182.484,157.469 186.5,165.5C 181.901,165.2 177.401,165.533 173,166.5C 172.5,198.498 172.333,230.498 172.5,262.5C 177.165,261.943 181.498,260.61 185.5,258.5C 203.774,252.91 221.607,246.243 239,238.5C 239.667,230.167 239.667,221.833 239,213.5C 238.292,212.619 237.458,211.953 236.5,211.5C 232.833,210.833 229.167,210.167 225.5,209.5C 230.573,202.02 234.573,194.02 237.5,185.5C 238.434,184.432 238.768,183.099 238.5,181.5C 239.338,181.158 239.672,180.492 239.5,179.5C 240.705,182.234 242.205,184.901 244,187.5C 244.047,183.853 243.214,180.353 241.5,177C 241.833,176.5 242.167,176 242.5,175.5C 243.944,178.055 245.111,180.721 246,183.5C 246.333,167.167 246.667,150.833 247,134.5C 247.5,134 248,133.5 248.5,133C 270.004,132.171 291.337,132.337 312.5,133.5C 291.66,133.169 270.993,133.503 250.5,134.5C 249.883,134.611 249.383,134.944 249,135.5C 248.172,152.005 248.338,168.339 249.5,184.5C 253.215,193.759 257.881,202.592 263.5,211C 259.167,211.333 254.833,211.667 250.5,212C 250,212.5 249.5,213 249,213.5C 248.5,220.158 248.334,226.825 248.5,233.5C 249.873,233.657 251.207,233.49 252.5,233C 272.147,222.033 291.813,211.033 311.5,200C 312.381,199.292 313.047,198.458 313.5,197.5C 315.28,196.01 315.946,194.01 315.5,191.5C 318.47,191.746 319.803,193.412 319.5,196.5C 323.33,195 327.33,194.333 331.5,194.5C 331.5,195.833 331.5,197.167 331.5,198.5C 329.05,198.298 326.717,198.631 324.5,199.5C 324.103,198.475 323.437,198.308 322.5,199C 284.699,226.735 243.366,247.902 198.5,262.5C 195.482,262.335 192.482,262.502 189.5,263C 189.833,263.333 190.167,263.667 190.5,264C 189.5,264.167 188.5,264.333 187.5,264.5C 183.167,263.167 178.833,263.167 174.5,264.5C 171.013,263.573 169.68,261.24 170.5,257.5C 170.333,227.165 170.5,196.832 171,166.5C 171.5,166 172,165.5 172.5,165C 176.541,164.827 180.541,164.327 184.5,163.5C 181.317,160.826 178.484,157.826 176,154.5C 176.347,157.271 176.18,159.938 175.5,162.5C 172.84,161.653 170.174,161.153 167.5,161C 167.167,161.333 166.833,161.667 166.5,162C 170.587,165.013 169.92,166.513 164.5,166.5C 164.5,196.167 164.5,225.833 164.5,255.5C 164.806,258.385 164.473,261.052 163.5,263.5C 163.667,231.498 163.5,199.498 163,167.5C 162.5,167 162,166.5 161.5,166C 157.167,165.667 152.833,165.333 148.5,165C 156.255,155.574 160.588,144.741 161.5,132.5C 162.167,110.669 162.5,88.6692 162.5,66.5C 162.5,44.1564 161.833,22.1564 160.5,0.5C 160.167,0.5 159.833,0.5 159.5,0.5 Z"/></g>
<g><path style="opacity:1" fill="#1a744a" d="M 186.5,165.5 C 183.695,166.319 180.695,166.819 177.5,167C 177.957,167.414 178.291,167.914 178.5,168.5C 176.769,171.239 175.603,170.906 175,167.5C 174.333,196.833 174.333,226.167 175,255.5C 177.099,256.466 178.932,257.8 180.5,259.5C 182.071,258.691 183.738,258.357 185.5,258.5C 181.498,260.61 177.165,261.943 172.5,262.5C 172.333,230.498 172.5,198.498 173,166.5C 177.401,165.533 181.901,165.2 186.5,165.5 Z"/></g>
<g><path style="opacity:1" fill="#fbf4f6" d="M 170.5,257.5 C 168.835,230.505 167.668,203.172 167,175.5C 167.16,202.519 166.327,229.185 164.5,255.5C 164.5,225.833 164.5,196.167 164.5,166.5C 169.92,166.513 170.587,165.013 166.5,162C 166.833,161.667 167.167,161.333 167.5,161C 170.174,161.153 172.84,161.653 175.5,162.5C 176.18,159.938 176.347,157.271 176,154.5C 178.484,157.826 181.317,160.826 184.5,163.5C 180.541,164.327 176.541,164.827 172.5,165C 172,165.5 171.5,166 171,166.5C 170.5,196.832 170.333,227.165 170.5,257.5 Z"/></g>
<g><path style="opacity:1" fill="#97c8b2" d="M 225.5,209.5 C 229.167,210.167 232.833,210.833 236.5,211.5C 232.445,211.824 228.445,211.491 224.5,210.5C 224.624,209.893 224.957,209.56 225.5,209.5 Z"/></g>
<g><path style="opacity:1" fill="#267b54" d="M 223.5,289.5 C 223.721,288.265 224.388,287.265 225.5,286.5C 225.167,286.167 224.833,285.833 224.5,285.5C 221.516,286.275 218.516,286.941 215.5,287.5C 254.862,264.48 292.195,238.48 327.5,209.5C 327.833,209.667 328.167,209.833 328.5,210C 305.031,230.475 280.697,249.808 255.5,268C 244.977,275.425 234.31,282.591 223.5,289.5 Z"/></g>
<g><path style="opacity:1" fill="#344774" d="M 324.5,199.5 C 279.218,239.491 227.551,268.991 169.5,288C 134.391,299.722 98.3912,304.055 61.5,301C 56.7637,299.919 52.0971,298.586 47.5,297C 29.2193,289.506 26.7193,278.339 40,263.5C 53.1758,250.323 68.6758,240.823 86.5,235C 88.2588,234.202 89.9255,234.369 91.5,235.5C 84.5492,239.895 78.0492,244.895 72,250.5C 66.9363,256.739 66.2697,263.405 70,270.5C 74.7591,276.315 80.9258,279.482 88.5,280C 126.461,281.65 163.128,275.817 198.5,262.5C 243.366,247.902 284.699,226.735 322.5,199C 323.437,198.308 324.103,198.475 324.5,199.5 Z"/></g>
<g><path style="opacity:1" fill="#177a4c" d="M 223.5,289.5 C 175.495,319.389 123.161,336.056 66.5,339.5C 46.3127,340.865 27.6461,336.365 10.5,326C -2.00027,314.452 -2.83361,301.952 8,288.5C 6.22874,300.434 10.0621,309.934 19.5,317C 24.8138,319.827 30.1471,322.327 35.5,324.5C 35.4142,325.496 35.7476,326.329 36.5,327C 57.4668,328.583 78.4668,328.916 99.5,328C 103.783,327.232 107.783,326.066 111.5,324.5C 137.009,319.943 161.676,312.443 185.5,302C 195.4,296.883 205.4,292.05 215.5,287.5C 218.516,286.941 221.516,286.275 224.5,285.5C 224.833,285.833 225.167,286.167 225.5,286.5C 224.388,287.265 223.721,288.265 223.5,289.5 Z"/></g>
<g><path style="opacity:1" fill="#237750" d="M 35.5,324.5 C 60.8183,328.4 86.1516,328.4 111.5,324.5C 107.783,326.066 103.783,327.232 99.5,328C 78.4668,328.916 57.4668,328.583 36.5,327C 35.7476,326.329 35.4142,325.496 35.5,324.5 Z"/></g>
<g><path style="opacity:1" fill="#f3f4f6" d="M 290.5,367.5 C 289.026,366.564 288.026,365.23 287.5,363.5C 284.375,362.521 281.042,362.187 277.5,362.5C 277.5,378.833 277.5,395.167 277.5,411.5C 281.634,412.485 285.968,412.818 290.5,412.5C 290.5,404.833 290.5,397.167 290.5,389.5C 293.891,393.928 297.058,398.594 300,403.5C 303.24,405.036 306.24,404.703 309,402.5C 311.501,397.494 314.501,392.827 318,388.5C 318.5,396.159 318.666,403.826 318.5,411.5C 322.5,411.5 326.5,411.5 330.5,411.5C 330.5,395.5 330.5,379.5 330.5,363.5C 331.167,363.833 331.833,364.167 332.5,364.5C 332.5,395.833 332.5,427.167 332.5,458.5C 221.5,458.5 110.5,458.5 -0.5,458.5C -0.5,426.833 -0.5,395.167 -0.5,363.5C 12.1338,362.392 24.8005,362.225 37.5,363C 39.2932,365.795 41.4598,368.295 44,370.5C 45.2123,374.919 46.5457,379.252 48,383.5C 48.6667,378.167 48.6667,372.833 48,367.5C 47.6667,368.833 47.3333,370.167 47,371.5C 44.9564,369.252 45.1231,367.252 47.5,365.5C 46.1285,363.38 46.7952,362.38 49.5,362.5C 49.5,379.167 49.5,395.833 49.5,412.5C 53.8333,412.5 58.1667,412.5 62.5,412.5C 62.5,407.833 62.5,403.167 62.5,398.5C 65.5,398.5 68.5,398.5 71.5,398.5C 74.4285,402.694 77.0952,407.027 79.5,411.5C 84.3477,412.814 89.3477,412.814 94.5,411.5C 94.3764,410.893 94.0431,410.56 93.5,410.5C 90.3018,405.277 86.9685,400.11 83.5,395C 90.9599,388.809 92.9599,381.309 89.5,372.5C 90.9348,371.21 91.9348,369.544 92.5,367.5C 93.7741,370.367 94.6075,373.367 95,376.5C 95.3333,373.5 95.6667,370.5 96,367.5C 96.1769,380.075 96.6769,392.575 97.5,405C 97.3425,407.62 97.0092,410.287 96.5,413C 96.6135,414.28 97.2801,415.113 98.5,415.5C 99.4287,414.311 99.762,412.978 99.5,411.5C 111.833,411.5 124.167,411.5 136.5,411.5C 136.5,408.167 136.5,404.833 136.5,401.5C 128.167,401.5 119.833,401.5 111.5,401.5C 111.5,398.5 111.5,395.5 111.5,392.5C 118.833,392.5 126.167,392.5 133.5,392.5C 133.5,389.167 133.5,385.833 133.5,382.5C 126.167,382.5 118.833,382.5 111.5,382.5C 111.5,379.5 111.5,376.5 111.5,373.5C 119.833,373.5 128.167,373.5 136.5,373.5C 136.5,370.167 136.5,366.833 136.5,363.5C 124.167,363.5 111.833,363.5 99.5,363.5C 113.657,362.504 127.99,362.171 142.5,362.5C 142.5,379.167 142.5,395.833 142.5,412.5C 146.833,412.5 151.167,412.5 155.5,412.5C 155.175,404.648 155.508,396.982 156.5,389.5C 159.505,394.018 162.338,398.684 165,403.5C 168.24,405.036 171.24,404.703 174,402.5C 176.606,397.565 179.606,392.898 183,388.5C 183.5,396.159 183.666,403.826 183.5,411.5C 187.5,411.5 191.5,411.5 195.5,411.5C 196.483,407.702 196.817,403.702 196.5,399.5C 197.394,401.308 198.394,403.142 199.5,405C 197.818,406.895 197.318,409.062 198,411.5C 199.972,412.305 201.472,413.639 202.5,415.5C 202.833,415 203.167,414.5 203.5,414C 202.181,396.693 202.181,379.527 203.5,362.5C 203.17,379.009 203.504,395.342 204.5,411.5C 208.5,411.5 212.5,411.5 216.5,411.5C 216.5,395.5 216.5,379.5 216.5,363.5C 218.652,364.077 218.985,365.244 217.5,367C 218.044,380.827 218.878,394.66 220,408.5C 221.232,405.7 221.899,402.7 222,399.5C 222.333,388.833 222.667,378.167 223,367.5C 223.21,365.942 223.71,364.609 224.5,363.5C 224.062,375.576 224.562,387.576 226,399.5C 229.832,408.488 236.665,412.822 246.5,412.5C 258.54,413.408 266.04,408.074 269,396.5C 269.5,385.505 269.667,374.505 269.5,363.5C 265.5,363.5 261.5,363.5 257.5,363.5C 261.97,362.514 266.637,362.181 271.5,362.5C 271.64,360.876 270.973,359.71 269.5,359C 270.354,357.978 271.354,357.145 272.5,356.5C 276.223,357.511 276.223,358.845 272.5,360.5C 277.856,361.786 283.189,361.786 288.5,360.5C 289.72,360.887 290.387,361.72 290.5,363C 289.42,364.455 289.42,365.955 290.5,367.5 Z"/></g>
<g><path style="opacity:1" fill="#354873" d="M 17.5,399.5 C 16.5166,403.298 16.1832,407.298 16.5,411.5C 12.5,411.5 8.5,411.5 4.5,411.5C 4.5,395.5 4.5,379.5 4.5,363.5C 13.5062,363.334 22.5062,363.5 31.5,364C 42.4419,367.633 46.6086,375.133 44,386.5C 38.6892,397.569 29.8558,401.902 17.5,399.5 Z"/></g>
<g><path style="opacity:1" fill="#edf0f3" d="M 16.5,373.5 C 21.8081,372.743 26.6414,373.743 31,376.5C 33.6011,381.502 32.4344,385.335 27.5,388C 23.8484,388.499 20.1817,388.665 16.5,388.5C 16.5,383.5 16.5,378.5 16.5,373.5 Z"/></g>
<g><path style="opacity:1" fill="#344774" d="M 75.5,363.5 C 81.8197,363.99 86.4864,366.99 89.5,372.5C 92.9599,381.309 90.9599,388.809 83.5,395C 86.9685,400.11 90.3018,405.277 93.5,410.5C 89.03,411.486 84.3633,411.819 79.5,411.5C 77.0952,407.027 74.4285,402.694 71.5,398.5C 68.3752,397.521 65.0419,397.187 61.5,397.5C 61.5,402.167 61.5,406.833 61.5,411.5C 57.8333,411.5 54.1667,411.5 50.5,411.5C 50.5,395.5 50.5,379.5 50.5,363.5C 58.8333,363.5 67.1667,363.5 75.5,363.5 Z"/></g>
<g><path style="opacity:1" fill="#8893ab" d="M 73.5,374.5 C 69.8333,374.5 66.1667,374.5 62.5,374.5C 62.5,378.5 62.5,382.5 62.5,386.5C 61.5151,382.366 61.1818,378.032 61.5,373.5C 65.7016,373.183 69.7016,373.517 73.5,374.5 Z"/></g>
<g><path style="opacity:1" fill="#f2f5fa" d="M 73.5,374.5 C 78.2537,375.618 79.7537,378.618 78,383.5C 77.0975,384.701 75.9308,385.535 74.5,386C 70.5138,386.499 66.5138,386.666 62.5,386.5C 62.5,382.5 62.5,378.5 62.5,374.5C 66.1667,374.5 69.8333,374.5 73.5,374.5 Z"/></g>
<g><path style="opacity:1" fill="#7b87a1" d="M 49.5,362.5 C 58.3494,362.174 67.0161,362.507 75.5,363.5C 67.1667,363.5 58.8333,363.5 50.5,363.5C 50.5,379.5 50.5,395.5 50.5,411.5C 54.1667,411.5 57.8333,411.5 61.5,411.5C 61.5,406.833 61.5,402.167 61.5,397.5C 65.0419,397.187 68.3752,397.521 71.5,398.5C 68.5,398.5 65.5,398.5 62.5,398.5C 62.5,403.167 62.5,407.833 62.5,412.5C 58.1667,412.5 53.8333,412.5 49.5,412.5C 49.5,395.833 49.5,379.167 49.5,362.5 Z"/></g>
<g><path style="opacity:1" fill="#344773" d="M 287.5,363.5 C 288.026,365.23 289.026,366.564 290.5,367.5C 294.48,374.783 298.98,381.783 304,388.5C 309.5,380.333 315,372.167 320.5,364C 323.817,363.502 327.15,363.335 330.5,363.5C 330.5,379.5 330.5,395.5 330.5,411.5C 326.5,411.5 322.5,411.5 318.5,411.5C 318.666,403.826 318.5,396.159 318,388.5C 314.501,392.827 311.501,397.494 309,402.5C 306.24,404.703 303.24,405.036 300,403.5C 297.058,398.594 293.891,393.928 290.5,389.5C 289.501,396.077 289.167,403.41 289.5,411.5C 285.833,411.5 282.167,411.5 278.5,411.5C 278.5,395.5 278.5,379.5 278.5,363.5C 281.5,363.5 284.5,363.5 287.5,363.5 Z"/></g>
<g><path style="opacity:1" fill="#6b7894" d="M 287.5,363.5 C 284.5,363.5 281.5,363.5 278.5,363.5C 278.5,379.5 278.5,395.5 278.5,411.5C 278.167,411.5 277.833,411.5 277.5,411.5C 277.5,395.167 277.5,378.833 277.5,362.5C 281.042,362.187 284.375,362.521 287.5,363.5 Z"/></g>
<g><path style="opacity:1" fill="#a7b3ca" d="M 203.5,362.5 C 208.032,362.182 212.366,362.515 216.5,363.5C 212.5,363.5 208.5,363.5 204.5,363.5C 204.5,379.5 204.5,395.5 204.5,411.5C 203.504,395.342 203.17,379.009 203.5,362.5 Z"/></g>
<g><path style="opacity:1" fill="#b9c0d2" d="M 186.5,363.5 C 189.625,362.521 192.958,362.187 196.5,362.5C 196.5,374.833 196.5,387.167 196.5,399.5C 196.817,403.702 196.483,407.702 195.5,411.5C 195.5,395.5 195.5,379.5 195.5,363.5C 192.5,363.5 189.5,363.5 186.5,363.5 Z"/></g>
<g><path style="opacity:1" fill="#898fa3" d="M 142.5,362.5 C 146.042,362.187 149.375,362.521 152.5,363.5C 149.5,363.5 146.5,363.5 143.5,363.5C 143.5,379.5 143.5,395.5 143.5,411.5C 147.167,411.5 150.833,411.5 154.5,411.5C 154.169,403.804 154.503,396.138 155.5,388.5C 156.107,388.624 156.44,388.957 156.5,389.5C 155.508,396.982 155.175,404.648 155.5,412.5C 151.167,412.5 146.833,412.5 142.5,412.5C 142.5,395.833 142.5,379.167 142.5,362.5 Z"/></g>
<g><path style="opacity:1" fill="#334774" d="M 152.5,363.5 C 157.778,371.951 163.278,380.284 169,388.5C 174.856,380.1 180.689,371.767 186.5,363.5C 189.5,363.5 192.5,363.5 195.5,363.5C 195.5,379.5 195.5,395.5 195.5,411.5C 191.5,411.5 187.5,411.5 183.5,411.5C 183.666,403.826 183.5,396.159 183,388.5C 179.606,392.898 176.606,397.565 174,402.5C 171.24,404.703 168.24,405.036 165,403.5C 162.338,398.684 159.505,394.018 156.5,389.5C 156.44,388.957 156.107,388.624 155.5,388.5C 154.503,396.138 154.169,403.804 154.5,411.5C 150.833,411.5 147.167,411.5 143.5,411.5C 143.5,395.5 143.5,379.5 143.5,363.5C 146.5,363.5 149.5,363.5 152.5,363.5 Z"/></g>
<g><path style="opacity:1" fill="#344670" d="M 216.5,363.5 C 216.5,379.5 216.5,395.5 216.5,411.5C 212.5,411.5 208.5,411.5 204.5,411.5C 204.5,395.5 204.5,379.5 204.5,363.5C 208.5,363.5 212.5,363.5 216.5,363.5 Z"/></g>
<g><path style="opacity:1" fill="#344773" d="M 99.5,363.5 C 111.833,363.5 124.167,363.5 136.5,363.5C 136.5,366.833 136.5,370.167 136.5,373.5C 128.167,373.5 119.833,373.5 111.5,373.5C 111.5,376.5 111.5,379.5 111.5,382.5C 118.833,382.5 126.167,382.5 133.5,382.5C 133.5,385.833 133.5,389.167 133.5,392.5C 126.167,392.5 118.833,392.5 111.5,392.5C 111.5,395.5 111.5,398.5 111.5,401.5C 119.833,401.5 128.167,401.5 136.5,401.5C 136.5,404.833 136.5,408.167 136.5,411.5C 124.167,411.5 111.833,411.5 99.5,411.5C 99.5,395.5 99.5,379.5 99.5,363.5 Z"/></g>
<g><path style="opacity:1" fill="#344773" d="M 224.5,363.5 C 228.5,363.5 232.5,363.5 236.5,363.5C 236.334,373.172 236.5,382.839 237,392.5C 237.606,395.548 239.106,398.048 241.5,400C 247.208,402.52 252.042,401.353 256,396.5C 257.406,385.564 257.906,374.564 257.5,363.5C 261.5,363.5 265.5,363.5 269.5,363.5C 269.667,374.505 269.5,385.505 269,396.5C 266.04,408.074 258.54,413.408 246.5,412.5C 236.665,412.822 229.832,408.488 226,399.5C 224.562,387.576 224.062,375.576 224.5,363.5 Z"/></g>
<g><path style="opacity:1" fill="#98a5b7" d="M 290.5,389.5 C 290.5,397.167 290.5,404.833 290.5,412.5C 285.968,412.818 281.634,412.485 277.5,411.5C 277.833,411.5 278.167,411.5 278.5,411.5C 282.167,411.5 285.833,411.5 289.5,411.5C 289.167,403.41 289.501,396.077 290.5,389.5 Z"/></g>
<g><path style="opacity:1" fill="#b5bdd0" d="M 17.5,399.5 C 17.5,403.833 17.5,408.167 17.5,412.5C 12.9677,412.818 8.63441,412.485 4.5,411.5C 8.5,411.5 12.5,411.5 16.5,411.5C 16.1832,407.298 16.5166,403.298 17.5,399.5 Z"/></g>
<g><path style="opacity:1" fill="#a7b3bf" d="M 93.5,410.5 C 94.0431,410.56 94.3764,410.893 94.5,411.5C 89.3477,412.814 84.3477,412.814 79.5,411.5C 84.3633,411.819 89.03,411.486 93.5,410.5 Z"/></g>
<g><path style="opacity:1" fill="#3a4b72" d="M 75.5,430.5 C 75.5,431.5 75.5,432.5 75.5,433.5C 71.2984,433.183 67.2984,433.517 63.5,434.5C 62.5386,436.265 62.2053,438.265 62.5,440.5C 66.5,440.5 70.5,440.5 74.5,440.5C 74.5,441.833 74.5,443.167 74.5,444.5C 70.8333,444.5 67.1667,444.5 63.5,444.5C 62.5386,446.265 62.2053,448.265 62.5,450.5C 66.8333,450.5 71.1667,450.5 75.5,450.5C 75.5,451.5 75.5,452.5 75.5,453.5C 70.1667,453.5 64.8333,453.5 59.5,453.5C 59.5,445.833 59.5,438.167 59.5,430.5C 64.8333,430.5 70.1667,430.5 75.5,430.5 Z"/></g>
<g><path style="opacity:1" fill="#3a4a70" d="M 138.5,430.5 C 138.5,431.5 138.5,432.5 138.5,433.5C 135.833,433.5 133.167,433.5 130.5,433.5C 130.5,440.167 130.5,446.833 130.5,453.5C 129.5,453.5 128.5,453.5 127.5,453.5C 127.823,446.978 127.49,440.645 126.5,434.5C 123.833,434.5 121.167,434.5 118.5,434.5C 118.5,433.167 118.5,431.833 118.5,430.5C 125.167,430.5 131.833,430.5 138.5,430.5 Z"/></g>
<g><path style="opacity:1" fill="#3d4b74" d="M 243.5,429.5 C 248.908,431.955 251.575,436.288 251.5,442.5C 251.881,448.687 249.715,453.687 245,457.5C 243.72,457.387 242.887,456.72 242.5,455.5C 249.142,447.299 249.142,439.132 242.5,431C 243.056,430.617 243.389,430.117 243.5,429.5 Z"/></g>
<g><path style="opacity:1" fill="#445178" d="M 284.5,430.5 C 291.167,430.5 297.833,430.5 304.5,430.5C 304.5,431.833 304.5,433.167 304.5,434.5C 301.5,434.5 298.5,434.5 295.5,434.5C 295.5,440.833 295.5,447.167 295.5,453.5C 294.167,453.5 292.833,453.5 291.5,453.5C 291.5,447.167 291.5,440.833 291.5,434.5C 289.393,433.532 287.059,433.198 284.5,433.5C 284.5,432.5 284.5,431.5 284.5,430.5 Z"/></g>
<g><path style="opacity:1" fill="#404f74" d="M 13.5,429.5 C 21.0994,428.949 25.766,432.283 27.5,439.5C 26.0222,439.762 24.6888,439.429 23.5,438.5C 21.5795,434.042 18.2462,432.542 13.5,434C 8.93146,436.541 7.43146,440.375 9,445.5C 12.8043,451.377 17.471,452.044 23,447.5C 23.4828,446.552 23.6495,445.552 23.5,444.5C 24.8333,444.5 26.1667,444.5 27.5,444.5C 25.494,452.179 20.494,455.346 12.5,454C 5.77589,450.517 3.27589,445.017 5,437.5C 7.07383,433.923 9.90716,431.256 13.5,429.5 Z"/></g>
<g><path style="opacity:1" fill="#808a9c" d="M 75.5,430.5 C 76.4345,431.568 76.7678,432.901 76.5,434.5C 72.1667,434.5 67.8333,434.5 63.5,434.5C 67.2984,433.517 71.2984,433.183 75.5,433.5C 75.5,432.5 75.5,431.5 75.5,430.5 Z"/></g>
<g><path style="opacity:1" fill="#848fa7" d="M 218.5,430.5 C 218.5,431.5 218.5,432.5 218.5,433.5C 219.5,433.5 220.5,433.5 221.5,433.5C 223.415,433.216 225.081,433.549 226.5,434.5C 223.5,434.5 220.5,434.5 217.5,434.5C 217.232,432.901 217.566,431.568 218.5,430.5 Z"/></g>
<g><path style="opacity:1" fill="#808aa2" d="M 284.5,430.5 C 284.5,431.5 284.5,432.5 284.5,433.5C 287.059,433.198 289.393,433.532 291.5,434.5C 288.833,434.5 286.167,434.5 283.5,434.5C 283.232,432.901 283.566,431.568 284.5,430.5 Z"/></g>
<g><path style="opacity:1" fill="#3f4d72" d="M 160.5,428.5 C 163.958,430.503 163.791,432.837 160,435.5C 157.282,442.892 158.449,449.559 163.5,455.5C 163.167,456.5 162.5,457.167 161.5,457.5C 156.687,453.755 154.353,448.755 154.5,442.5C 154.667,440.833 154.833,439.167 155,437.5C 156.662,434.351 158.495,431.351 160.5,428.5 Z"/></g>
<g><path style="opacity:1" fill="#3e4e73" d="M 309.5,430.5 C 316.292,429.482 322.458,430.816 328,434.5C 332.21,442.533 330.377,448.699 322.5,453C 318.179,453.499 313.846,453.666 309.5,453.5C 309.5,445.833 309.5,438.167 309.5,430.5 Z"/></g>
<g><path style="opacity:1" fill="#3d4e75" d="M 190.5,430.5 C 192.144,430.286 193.644,430.62 195,431.5C 197.248,436.993 199.748,442.327 202.5,447.5C 205.269,442.296 207.769,436.963 210,431.5C 211.494,430.253 212.994,430.253 214.5,431.5C 211.295,438.742 207.962,445.909 204.5,453C 202.888,453.72 201.388,453.554 200,452.5C 196.546,445.262 193.379,437.928 190.5,430.5 Z"/></g>
<g><path style="opacity:1" fill="#495471" d="M 218.5,430.5 C 225.167,430.5 231.833,430.5 238.5,430.5C 238.5,431.833 238.5,433.167 238.5,434.5C 235.833,434.5 233.167,434.5 230.5,434.5C 230.823,441.022 230.49,447.355 229.5,453.5C 229.5,446.5 229.5,439.5 229.5,432.5C 231.199,432.62 232.865,432.954 234.5,433.5C 235.167,433.167 235.833,432.833 236.5,432.5C 234,432.167 231.5,431.833 229,431.5C 226.071,431.525 223.571,432.191 221.5,433.5C 220.5,433.5 219.5,433.5 218.5,433.5C 218.5,432.5 218.5,431.5 218.5,430.5 Z"/></g>
<g><path style="opacity:1" fill="#b8c2d8" d="M 272.5,430.5 C 273.49,436.645 273.823,442.978 273.5,449.5C 277.702,449.183 281.702,449.517 285.5,450.5C 285.167,450.5 284.833,450.5 284.5,450.5C 280.5,450.5 276.5,450.5 272.5,450.5C 272.5,443.833 272.5,437.167 272.5,430.5 Z"/></g>
<g><path style="opacity:1" fill="#a8b2c6" d="M 138.5,430.5 C 139.434,431.568 139.768,432.901 139.5,434.5C 136.833,434.5 134.167,434.5 131.5,434.5C 131.823,441.022 131.49,447.355 130.5,453.5C 130.5,446.833 130.5,440.167 130.5,433.5C 133.167,433.5 135.833,433.5 138.5,433.5C 138.5,432.5 138.5,431.5 138.5,430.5 Z"/></g>
<g><path style="opacity:1" fill="#b9c6d9" d="M 63.5,434.5 C 63.5,436.167 63.5,437.833 63.5,439.5C 67.3714,439.185 71.0381,439.518 74.5,440.5C 70.5,440.5 66.5,440.5 62.5,440.5C 62.2053,438.265 62.5386,436.265 63.5,434.5 Z"/></g>
<g><path style="opacity:1" fill="#3d4c74" d="M 173.5,446.5 C 172.532,448.607 172.198,450.941 172.5,453.5C 171.5,453.5 170.5,453.5 169.5,453.5C 169.5,445.833 169.5,438.167 169.5,430.5C 173.514,430.334 177.514,430.501 181.5,431C 188.226,434.287 189.226,438.954 184.5,445C 180.94,446.237 177.273,446.737 173.5,446.5 Z"/></g>
<g><path style="opacity:1" fill="#f2f5f8" d="M 173.5,434.5 C 177.007,433.994 180.174,434.66 183,436.5C 183.972,439.294 183.139,441.294 180.5,442.5C 178.167,442.5 175.833,442.5 173.5,442.5C 173.5,439.833 173.5,437.167 173.5,434.5 Z"/></g>
<g><path style="opacity:1" fill="#808ca6" d="M 173.5,434.5 C 173.5,437.167 173.5,439.833 173.5,442.5C 175.833,442.5 178.167,442.5 180.5,442.5C 178.052,443.473 175.385,443.806 172.5,443.5C 172.19,440.287 172.523,437.287 173.5,434.5 Z"/></g>
<g><path style="opacity:1" fill="#3e4d73" d="M 34.5,430.5 C 38.8461,430.334 43.1794,430.501 47.5,431C 52.1433,433.072 53.6433,436.572 52,441.5C 50.437,442.725 49.2703,444.225 48.5,446C 50.152,448.323 51.8187,450.656 53.5,453C 51.8333,453.667 50.1667,453.667 48.5,453C 46.7532,448.291 43.4199,446.124 38.5,446.5C 38.5,448.833 38.5,451.167 38.5,453.5C 37.1667,453.5 35.8333,453.5 34.5,453.5C 34.5,445.833 34.5,438.167 34.5,430.5 Z"/></g>
<g><path style="opacity:1" fill="#eef3f8" d="M 38.5,434.5 C 41.5184,434.335 44.5184,434.502 47.5,435C 49.22,438.086 48.5534,440.419 45.5,442C 43.1902,442.497 40.8568,442.663 38.5,442.5C 38.5,439.833 38.5,437.167 38.5,434.5 Z"/></g>
<g><path style="opacity:1" fill="#798395" d="M 126.5,434.5 C 127.49,440.645 127.823,446.978 127.5,453.5C 128.5,453.5 129.5,453.5 130.5,453.5C 129.432,454.434 128.099,454.768 126.5,454.5C 126.5,447.833 126.5,441.167 126.5,434.5 Z"/></g>
<g><path style="opacity:1" fill="#eff1f6" d="M 313.5,434.5 C 320.34,432.68 324.673,435.013 326.5,441.5C 325.182,448.632 320.849,451.632 313.5,450.5C 313.5,445.167 313.5,439.833 313.5,434.5 Z"/></g>
<g><path style="opacity:1" fill="#364570" d="M 229.5,453.5 C 228.5,453.5 227.5,453.5 226.5,453.5C 226.5,447.167 226.5,440.833 226.5,434.5C 225.081,433.549 223.415,433.216 221.5,433.5C 223.571,432.191 226.071,431.525 229,431.5C 231.5,431.833 234,432.167 236.5,432.5C 235.833,432.833 235.167,433.167 234.5,433.5C 232.865,432.954 231.199,432.62 229.5,432.5C 229.5,439.5 229.5,446.5 229.5,453.5 Z"/></g>
<g><path style="opacity:1" fill="#354671" d="M 109.5,430.5 C 110.833,430.5 112.167,430.5 113.5,430.5C 113.5,438.167 113.5,445.833 113.5,453.5C 112.167,453.5 110.833,453.5 109.5,453.5C 109.5,445.833 109.5,438.167 109.5,430.5 Z"/></g>
<g><path style="opacity:1" fill="#425078" d="M 81.5,430.5 C 86.1785,430.334 90.8452,430.501 95.5,431C 104.462,436.1 105.795,442.767 99.5,451C 93.7624,453.295 87.7624,454.128 81.5,453.5C 81.5,445.833 81.5,438.167 81.5,430.5 Z"/></g>
<g><path style="opacity:1" fill="#97a0b8" d="M 93.5,434.5 C 91.1667,434.5 88.8333,434.5 86.5,434.5C 86.5,439.5 86.5,444.5 86.5,449.5C 88.5,449.5 90.5,449.5 92.5,449.5C 90.3926,450.468 88.0593,450.802 85.5,450.5C 85.5,444.833 85.5,439.167 85.5,433.5C 88.3854,433.194 91.0521,433.527 93.5,434.5 Z"/></g>
<g><path style="opacity:1" fill="#f4f6f6" d="M 93.5,434.5 C 99.1811,436.871 100.681,440.871 98,446.5C 96.7365,448.607 94.9032,449.607 92.5,449.5C 90.5,449.5 88.5,449.5 86.5,449.5C 86.5,444.5 86.5,439.5 86.5,434.5C 88.8333,434.5 91.1667,434.5 93.5,434.5 Z"/></g>
<g><path style="opacity:1" fill="#36466e" d="M 269.5,430.5 C 270.5,430.5 271.5,430.5 272.5,430.5C 272.5,437.167 272.5,443.833 272.5,450.5C 276.5,450.5 280.5,450.5 284.5,450.5C 284.5,451.5 284.5,452.5 284.5,453.5C 279.5,453.5 274.5,453.5 269.5,453.5C 269.5,445.833 269.5,438.167 269.5,430.5 Z"/></g>
<g><path style="opacity:1" fill="#a3aec5" d="M 63.5,444.5 C 63.5,446.167 63.5,447.833 63.5,449.5C 67.8333,449.5 72.1667,449.5 76.5,449.5C 76.5,451.167 76.5,452.833 76.5,454.5C 70.642,454.822 64.9753,454.489 59.5,453.5C 64.8333,453.5 70.1667,453.5 75.5,453.5C 75.5,452.5 75.5,451.5 75.5,450.5C 71.1667,450.5 66.8333,450.5 62.5,450.5C 62.2053,448.265 62.5386,446.265 63.5,444.5 Z"/></g>
<g><path style="opacity:1" fill="#9199b3" d="M 173.5,446.5 C 173.5,449.167 173.5,451.833 173.5,454.5C 171.901,454.768 170.568,454.434 169.5,453.5C 170.5,453.5 171.5,453.5 172.5,453.5C 172.198,450.941 172.532,448.607 173.5,446.5 Z"/></g>
<g><path style="opacity:1" fill="#8d96ad" d="M 269.5,430.5 C 269.5,438.167 269.5,445.833 269.5,453.5C 274.5,453.5 279.5,453.5 284.5,453.5C 284.5,452.5 284.5,451.5 284.5,450.5C 284.833,450.5 285.167,450.5 285.5,450.5C 285.5,451.833 285.5,453.167 285.5,454.5C 279.833,454.5 274.167,454.5 268.5,454.5C 268.174,446.316 268.508,438.316 269.5,430.5 Z"/></g>
</svg>
