<?xml version="1.0" encoding="UTF-8"?>
<svg version="1.1" viewBox="0 0 2048 620" width="1600" height="485" xmlns="http://www.w3.org/2000/svg">
<path transform="translate(0)" d="m0 0h2048v620h-2048z" fill="#FDFDFD"/>
<path transform="translate(295)" d="m0 0h2v192l1 25v18l-3 19-5 16-8 16-9 15 21 1 4 3 2 5v12l-1 1v146l1 2v6l-3 8-6 3-25 5-25 4-27 3-10 1h-24l-4-1v-398l3-16 7-16 8-11 9-9 14-9 24-12 44-24z" fill="#0B784D"/>
<path transform="translate(316,176)" d="m0 0h120l2 8v144l-3 15-8 16-14 24-2 3 19-1 5 3 3 4v18l-1 4 1 1v18l-4 6-5 3-29 10-72 26-7 2-5-1-1-3v-170l5-4h21l-6-11-14-25-4-9-2-11 1-11z" fill="#0B784D"/>
<path transform="translate(1832,135)" d="m0 0h38l7 11 24 36 10 16 7 10 10 15 11 16 4-5 10-15 11-16 7-11 7-10 5-7 4-7 22-33h39v199h-50l-1-1-1-96-5 9-15 23-10 15-7 11-6 9h-28l-9-14-10-16-7-10-4-7-6-9-7-11v97h-50z" fill="#314775"/>
<path transform="translate(1280,135)" d="m0 0h38l8 11 9 14 11 16 7 11 4 7 4 5 4 7 7 10 8 12 7 11 4-4 62-93 5-7h38v199h-50l-1-97-14 22-3 4-4 7-8 12-7 11-8 11h-27l-6-9-7-10-4-7-5-7-4-7-7-11-10-15v96h-51z" fill="#314775"/>
<path transform="translate(900,135)" d="m0 0h103l12 2 6 2 13 5 12 8 6 5 7 9 5 8 4 11 2 13v14l-2 12-6 15-8 11-8 8-8 6 1 4 6 8 4 7 18 27 11 16 4 6v2h-58l-7-10-8-12-14-22-8-11-1-1-36-1v57h-50z" fill="#314775"/>
<path transform="translate(714,135)" d="m0 0h97l9 2 18 5 10 6 9 6 7 8 7 11 5 12 2 9v29l-5 16-6 11-4 6-7 6-5 5-11 7-12 5-16 4-6 1h-42v50h-50z" fill="#314775"/>
<path transform="translate(1102,135)" d="m0 0h151l1 1v41l-2 2h-100l1 35 88 1v42h-89v33h100l2 3v40l-1 1h-151z" fill="#314775"/>
<path transform="translate(1613,135)" d="m0 0h50l1 109 1 1 2 16 3 8 3 6 2 1 3 5 12 7 8 2h15l9-2 11-6 5-5 6-10 3-11 1-11 1-1 1-109h50v120l-1 8-1 1-3 15-5 13-7 12-4 4-3 5-8 7-11 7-9 5-16 4-7 1-1 1-19 1-16-1-1-1-15-3-12-4-15-9-5-5-6-5-4-6-7-11-7-17-3-13-1-9z" fill="#314775"/>
<path transform="translate(590,363)" d="m0 0 4 1-3 5-10 9-17 13-18 14-17 12-24 16-19 12-25 15-26 14-21 11-28 13-31 13-30 11-22 7-33 9-34 7-34 5-26 2h-38l-24-2-21-5-15-6-11-6-6-7-3-7v-12l5-12 7-10 9-10 9-9 14-10 17-10 21-10 25-9 2 4-11 8-11 7-12 11-7 11-2 8 1 11 5 9 9 8 11 4 16 3h57l34-4 36-7 27-7 30-9 36-12 26-10 26-11 15-7 25-12 23-12 24-14 23-14 21-14 14-10z" fill="#314775"/>
<path transform="translate(463,244)" d="m0 0 108 1 5 5v105l-4 9-13 8-25 14-23 13-24 13-23 13-6 3h-4v-31l1-7 3-3 3-1h20l-15-27-8-13-3-9-1-5 1-84 4-3z" fill="#0B784D"/>
<path transform="translate(605,378)" d="m0 0 2 1-12 11-15 14-17 13-14 11-18 14-16 12-18 14-18 13-19 14-17 12-27 18-28 17-24 13-22 11-25 11-35 13-32 10-40 10-25 5-33 4-15 1h-137v-61l3-12 10-21 3 1v23l3 10 6 10 8 7 17 9 15 5 22 4 21 2h52l37-4 24-4 28-6 34-10 33-12 19-8 14-7 23-11 27-14 21-12 30-18 32-21 16-11 17-12 18-13 18-14 13-10 16-13 17-13z" fill="#0B784D"/>
<path transform="translate(1531,135)" d="m0 0h50v199h-50z" fill="#314775"/>
<path transform="translate(714,367)" d="m0 0h1334v7h-1334z" fill="#0B794D"/>
<path transform="translate(1031,410)" d="m0 0h47l10 2 12 7 8 7 6 9 3 7 2 7v14l-3 12-5 9-9 10-5 4-10 5-11 2-21 1h-15l-8-1-1-1z" fill="#314775"/>
<path transform="translate(1961,410)" d="m0 0h45l10 2 12 7 9 8 6 10 3 10 1 1v18l-3 9-6 11-5 6-12 9-11 3-6 1-42 1-1-1z" fill="#314775"/>
<path transform="translate(836,410)" d="m0 0h49l9 3 11 8 5 8 2 7v10l-3 11-6 7-9 6h-3l20 26 6 8-1 2h-18l-11-14-12-16-1-1-21-1v29l-1 2h-16z" fill="#304874"/>
<path transform="translate(1388,410)" d="m0 0h46l9 3 10 6 3 3 4 8 2 14-2 11-5 9-10 8-7 3-10 2h-24v28h-16z" fill="#314775"/>
<path transform="translate(938,410)" d="m0 0h69v14l-1 1h-52v25h47v15l-47 1v25h53v14l-44 1h-25z" fill="#314775"/>
<path transform="translate(763,407)" d="m0 0 4 1h8l10 4 8 5 9 9 7 14 1 6h-17l-4-9-4-6-8-5-11-2-5-1-4 1-5 1-10 5-5 5-1 3h-2l-3 11v18l3 8 6 8 7 5 7 3h18l12-6 6-8 4-8 1-1h14l1 5-4 10-7 10-10 8-7 3-8 3h-21l-6-2-10-4-13-11-8-14-2-8v-21l3-9 5-10 12-12h3v-2l9-4 7-2z" fill="#304874"/>
<path transform="translate(764,179)" d="m0 0h39l11 4 7 5 5 7 3 14-1 1-2 12-4 6-4 5-7 4-7 2h-40z" fill="#FDFDFD"/>
<path transform="translate(950,179)" d="m0 0h44l10 3 8 6 5 6 2 6 1 6-2 8-6 10-7 4-8 1v2l-10 1h-37z" fill="#FDFDFD"/>
<path transform="translate(1047,425)" d="m0 0h30l10 4 9 8 6 12v16l-7 14-6 5-6 4-9 3h-26l-1-1z" fill="#FDFDFD"/>
<path transform="translate(1474,410)" d="m0 0h16l8 16 13 28 4 10 3 5 4 10 1 4h2l3-9 6-14 7-15 12-27 4-8h17l-3 9-7 14-4 10-3 7-4 8-4 10-13 28-5 10-15-1-7-13-4-10-12-27-4-8-8-18-7-15z" fill="#314875"/>
<path transform="translate(1977,425)" d="m0 0h28l10 4 8 6 6 10 1 4v16l-3 8-4 6-8 7-8 3-5 2h-25z" fill="#FDFDFD"/>
<path transform="translate(1587,410)" d="m0 0h85v14l-1 1h-33v80h-16v-80h-33l-2-3z" fill="#314775"/>
<path transform="translate(1180,410)" d="m0 0h84v14l-1 1h-32v80h-16v-80h-33l-2-2z" fill="#304874"/>
<path transform="translate(1857,410)" d="m0 0h83v14l-1 1h-33v80h-16v-80h-33z" fill="#314775"/>
<path transform="translate(1795,410)" d="m0 0h16l1 80 50 1v14l-54 1-13-1z" fill="#314775"/>
<path transform="translate(1695,402)" d="m0 0 8 6 9 11 7 12 5 17 1 8v13l-2 14-5 13-6 10-9 11-7 6-7-6-3-3 2-4 8-8 8-14 3-8 1-6v-23l-4-13-6-11-7-9-5-5 2-4z" fill="#314874"/>
<path transform="translate(1355,403)" d="m0 0 4 1 7 7-5 8-4 3-4 7-6 12-2 6-1 4v24l2 6 4 10 5 9 11 13-6 7-3 3-4-2-7-7-8-11-6-11-3-12-1-8-1-1v-15l2-10 4-14 8-14 8-10z" fill="#314875"/>
<path transform="translate(1144,410)" d="m0 0h16v95l-2 1-14-1z" fill="#314775"/>
<path transform="translate(1404,425)" d="m0 0h28l8 4 5 6 1 4v7l-3 7-4 5-10 4h-24l-1-1z" fill="#FDFDFD"/>
<path transform="translate(0,565)" d="m0 0h1l3 12 7 10 8 8 15 9 15 6 14 4 27 4 14 1v1h-104z" fill="#FDFDFD"/>
<path transform="translate(853,425)" d="m0 0h30l9 5 4 6v10l-4 6-6 5-9 2h-24z" fill="#FDFDFD"/>
</svg>
